<svg xmlns="http://www.w3.org/2000/svg" viewBox="0 0 200 1800" preserveAspectRatio="xMinYMin meet">
  <!-- Row 1 -->
  <g opacity="0.3" transform="translate(20, 80)">
    <ellipse cx="30" cy="40" rx="15" ry="35" fill="#a89968" stroke="#8a7948" stroke-width="1"/>
    <line x1="30" y1="10" x2="30" y2="70" stroke="#8a7948" stroke-width="1.5"/>
  </g>
  <g opacity="0.25" transform="translate(90, 85) rotate(25)">
    <ellipse cx="20" cy="25" rx="10" ry="22" fill="#b8c9a0" stroke="#98a87d" stroke-width="1"/>
  </g>
  <g opacity="0.22" transform="translate(140, 90)">
    <circle cx="15" cy="15" r="12" fill="#e8b4a8" stroke="#d4a094" stroke-width="1"/>
  </g>
  
  <!-- Row 2 -->
  <g opacity="0.25" transform="translate(40, 180)">
    <ellipse cx="25" cy="30" rx="20" ry="25" fill="#f0ead6" stroke="#d4c5a0" stroke-width="1.5"/>
    <ellipse cx="25" cy="22" rx="15" ry="12" fill="#f5f0e0" stroke="#d4c5a0" stroke-width="1"/>
    <path d="M20,12 Q25,8 30,12" stroke="#a89968" stroke-width="1.5" fill="none"/>
  </g>
  <g opacity="0.2" transform="translate(110, 190)">
    <ellipse cx="25" cy="18" rx="22" ry="14" fill="#d4c5a0" opacity="0.3"/>
  </g>
  <g opacity="0.24" transform="translate(160, 185)">
    <path d="M15,20 L25,10 L35,20 L30,35 L20,35 Z" fill="#f5e6c8" stroke="#e0d0a8" stroke-width="1.2"/>
    <circle cx="25" cy="25" r="2.5" fill="#e0d0a8" opacity="0.6"/>
  </g>
  
  <!-- Row 3 -->
  <g opacity="0.28" transform="translate(15, 280) rotate(-15)">
    <ellipse cx="30" cy="30" rx="16" ry="28" fill="#b8c9a0" stroke="#98a87d" stroke-width="1.2"/>
    <line x1="30" y1="5" x2="30" y2="55" stroke="#98a87d" stroke-width="1"/>
  </g>
  <g opacity="0.22" transform="translate(85, 290)">
    <path d="M20,8 L8,40 L32,40 Z" fill="none" stroke="#d4a094" stroke-width="1.5"/>
    <circle cx="18" cy="32" r="2" fill="#e8b4a8" opacity="0.5"/>
  </g>
  <g opacity="0.26" transform="translate(135, 285) rotate(-10)">
    <ellipse cx="22" cy="26" rx="12" ry="24" fill="#a89968" stroke="#8a7948" stroke-width="1"/>
  </g>
  
  <!-- Row 4 -->
  <g opacity="0.23" transform="translate(50, 390)">
    <ellipse cx="20" cy="22" rx="16" ry="20" fill="#f0ead6" stroke="#d4c5a0" stroke-width="1.3"/>
    <path d="M15,10 Q20,6 25,10" stroke="#a89968" stroke-width="1.3" fill="none"/>
  </g>
  <g opacity="0.24" transform="translate(120, 385)">
    <circle cx="20" cy="25" r="18" fill="#e8b4a8" stroke="#d4a094" stroke-width="1.2"/>
    <path d="M14,12 Q18,8 20,10 Q22,8 26,12" stroke="#a89968" stroke-width="1.6" fill="none"/>
  </g>
  <g opacity="0.2" transform="translate(165, 395)">
    <ellipse cx="20" cy="20" rx="18" ry="12" fill="#d4c5a0" opacity="0.3"/>
  </g>
  
  <!-- Row 5 -->
  <g opacity="0.26" transform="translate(25, 490)">
    <path d="M18,25 L32,12 L42,26 L36,42 L24,42 Z" fill="#f5e6c8" stroke="#e0d0a8" stroke-width="1.3"/>
    <circle cx="32" cy="30" r="3" fill="#e0d0a8" opacity="0.6"/>
    <circle cx="28" cy="36" r="2" fill="#e0d0a8" opacity="0.5"/>
  </g>
  <g opacity="0.27" transform="translate(95, 485) rotate(15)">
    <ellipse cx="25" cy="28" rx="14" ry="26" fill="#b8c9a0" stroke="#98a87d" stroke-width="1.1"/>
    <line x1="25" y1="4" x2="25" y2="52" stroke="#98a87d" stroke-width="1"/>
  </g>
  <g opacity="0.3" transform="translate(155, 495)">
    <ellipse cx="25" cy="35" rx="13" ry="30" fill="#a89968" stroke="#8a7948" stroke-width="1"/>
    <line x1="25" y1="8" x2="25" y2="62" stroke="#8a7948" stroke-width="1.3"/>
  </g>
  
  <!-- Row 6 -->
  <g opacity="0.22" transform="translate(45, 600)">
    <path d="M22,10 L10,48 L34,48 Z" fill="none" stroke="#d4a094" stroke-width="1.4"/>
    <circle cx="20" cy="38" r="2.5" fill="#e8b4a8" opacity="0.5"/>
    <circle cx="26" cy="42" r="2" fill="#e8b4a8" opacity="0.5"/>
  </g>
  <g opacity="0.25" transform="translate(110, 595)">
    <ellipse cx="22" cy="28" rx="18" ry="23" fill="#f0ead6" stroke="#d4c5a0" stroke-width="1.4"/>
    <ellipse cx="22" cy="20" rx="13" ry="11" fill="#f5f0e0" stroke="#d4c5a0" stroke-width="1"/>
  </g>
  <g opacity="0.19" transform="translate(165, 605)">
    <ellipse cx="22" cy="22" rx="20" ry="13" fill="#d4c5a0" opacity="0.3"/>
  </g>
  
  <!-- Row 7 -->
  <g opacity="0.28" transform="translate(20, 700) rotate(-20)">
    <ellipse cx="26" cy="30" rx="15" ry="28" fill="#b8c9a0" stroke="#98a87d" stroke-width="1.2"/>
  </g>
  <g opacity="0.24" transform="translate(90, 695)">
    <path d="M20,22 L34,10 L44,24 L38,40 L26,40 Z" fill="#f5e6c8" stroke="#e0d0a8" stroke-width="1.2"/>
    <circle cx="34" cy="28" r="3.5" fill="#e0d0a8" opacity="0.6"/>
  </g>
  <g opacity="0.26" transform="translate(150, 705)">
    <circle cx="18" cy="22" r="16" fill="#e8b4a8" stroke="#d4a094" stroke-width="1.1"/>
    <path d="M12,10 Q16,6 18,8 Q20,6 24,10" stroke="#a89968" stroke-width="1.5" fill="none"/>
  </g>
  
  <!-- Row 8 -->
  <g opacity="0.3" transform="translate(35, 810)">
    <path d="M25,12 Q32,20 30,32 Q28,44 25,52 Q22,44 20,32 Q18,20 25,12 Z" fill="none" stroke="#a89968" stroke-width="1.5"/>
    <line x1="25" y1="12" x2="25" y2="52" stroke="#a89968" stroke-width="1"/>
  </g>
  <g opacity="0.2" transform="translate(105, 815)">
    <ellipse cx="24" cy="24" rx="22" ry="14" fill="#d4c5a0" opacity="0.3"/>
  </g>
  <g opacity="0.22" transform="translate(160, 820)">
    <path d="M18,8 L8,38 L28,38 Z" fill="none" stroke="#d4a094" stroke-width="1.3"/>
    <circle cx="16" cy="30" r="2" fill="#e8b4a8" opacity="0.5"/>
  </g>
</svg>
